<svg width="336" height="303" viewBox="0 0 336 303" fill="none" xmlns="http://www.w3.org/2000/svg">
<path opacity="0.4" d="M305.192 34.2522C234.41 0.569992 203.187 92.6763 154.379 107.831C105.613 130.002 58.5903 104.052 29.5555 126.296C-16.4678 161.556 3.73231 223.241 33.1956 249.196C75.4474 286.416 150.533 273.02 228.142 232.775C325.377 182.352 367.255 63.7858 305.192 34.2522Z" fill="#98C3E8"/>
<path opacity="0.2" d="M69.974 70.9641C72.4185 77.0755 65.0849 86.6092 54.5734 89.7871C45.5285 92.5216 36.7282 92.2316 34.2836 85.8758C32.1212 80.2534 38.9283 74.142 46.7508 70.9641C54.5734 67.7862 67.5294 64.8528 69.974 70.9641Z" fill="#98C3E8"/>
<path opacity="0.2" d="M149.91 58.497C148.008 53.6375 154.709 42.2974 163.014 39.82C170.16 37.6882 176.855 32.6649 178.756 37.7184C180.438 42.1888 175.289 52.2999 169.105 54.7886C162.921 57.2774 151.813 63.3565 149.91 58.497Z" fill="#98C3E8"/>
<path opacity="0.2" d="M144.431 299.146C142.529 294.286 148.354 286.752 156.659 284.275C163.805 282.143 170.745 282.41 172.647 287.464C174.329 291.934 168.933 296.755 162.749 299.243C156.566 301.732 146.333 304.005 144.431 299.146Z" fill="#98C3E8"/>
<path opacity="0.2" d="M230.371 274.375C226.414 265.071 239.028 244.397 256.284 239.662C271.132 235.588 295.107 243.921 299.063 253.596C302.562 262.155 279.644 260.739 266.796 265.497C253.948 270.256 234.329 283.678 230.371 274.375Z" fill="#98C3E8"/>
<mask id="mask0" mask-type="alpha" maskUnits="userSpaceOnUse" x="10" y="28" width="316" height="241">
<path d="M296.564 35.0019C227.838 4.65275 200.289 93.9325 153.891 109.844C107.715 132.488 61.965 108.896 34.7062 131.059C-8.50182 166.19 12.4593 224.832 41.376 248.92C82.844 283.463 154.478 268.505 227.838 227.705C319.748 176.587 356.826 61.613 296.564 35.0019Z" fill="#98C3E8"/>
</mask>
<g mask="url(#mask0)">
<rect x="-41.7822" y="-10.7319" width="393.65" height="333.184" fill="url(#paint0_linear)"/>
<path d="M7.88679 95.3932C43.9817 113.595 84.3956 164.543 84.3956 188.87C84.3956 218.795 20.9468 264.659 -8.1554 290.676L240.19 306.718C231.346 267.127 209.017 179.11 222.605 159.562C240.19 134.265 311.351 140.435 351.251 145.062L362.049 32.4585C342.613 40.5825 299.114 63.9259 275.359 57.7558C253.371 52.0446 211.191 27.4197 193.297 11.7888" stroke="white" stroke-opacity="0.2" stroke-width="15"/>
<path d="M100.746 67.6282C110.619 119.045 137.458 213.304 165.841 178.998C201.319 136.116 229.392 80.5853 255.924 117.297C277.149 146.667 308.369 204.604 321.326 229.901" stroke="white" stroke-opacity="0.2" stroke-width="15"/>
<path fill-rule="evenodd" clip-rule="evenodd" d="M212.002 97.6093C212.002 99.7694 210.251 101.521 208.091 101.521C205.93 101.521 204.179 99.7694 204.179 97.6093C204.179 95.4491 205.93 93.698 208.091 93.698C210.251 93.698 212.002 95.4491 212.002 97.6093ZM50.1731 182.19C52.3332 182.19 54.0844 180.439 54.0844 178.279C54.0844 176.119 52.3332 174.368 50.1731 174.368C48.013 174.368 46.2618 176.119 46.2618 178.279C46.2618 180.439 48.013 182.19 50.1731 182.19ZM135.243 232.059C137.403 232.059 139.154 230.308 139.154 228.148C139.154 225.988 137.403 224.236 135.243 224.236C133.083 224.236 131.332 225.988 131.332 228.148C131.332 230.308 133.083 232.059 135.243 232.059ZM269.204 174.367C271.364 174.367 273.116 172.616 273.116 170.456C273.116 168.296 271.364 166.545 269.204 166.545C267.044 166.545 265.293 168.296 265.293 170.456C265.293 172.616 267.044 174.367 269.204 174.367Z" fill="white" fill-opacity="0.6"/>
<circle cx="35.5056" cy="220.814" r="6.75599" stroke="white" stroke-opacity="0.4" stroke-width="8"/>
<circle cx="319.072" cy="85.3866" r="6.75599" stroke="white" stroke-opacity="0.4" stroke-width="8"/>
<circle cx="196.845" cy="199.302" r="6.75599" stroke="white" stroke-opacity="0.4" stroke-width="8"/>
</g>
<g filter="url(#filter0_d)">
<rect x="221.291" y="62.897" width="43.024" height="43.024" rx="10" fill="white"/>
</g>
<path d="M240.847 92.231V86.3641H244.758V92.231H249.647V84.4085H252.581L242.803 75.6082L233.025 84.4085H235.958V92.231H240.847Z" fill="#5A98D0"/>
<g filter="url(#filter1_d)">
<path d="M215.142 10H201.731C199.88 10 198.38 11.2861 198.38 12.8727V24.3698C198.38 25.9563 199.88 27.2424 201.731 27.2424H215.142C216.992 27.2424 218.493 25.9563 218.493 24.3698V12.8727C218.493 11.2861 216.992 10 215.142 10Z" fill="#56CCF2"/>
</g>
<path d="M213.468 18.0187H211.429L213.013 16.6513L212.324 16.0521L210.046 18.0187H209.068V17.1747L211.346 15.208L210.652 14.6129L209.068 15.9803V14.2205H208.09V15.9803L206.506 14.6129L205.812 15.208L208.09 17.1747V18.0187H207.112L204.834 16.0521L204.145 16.6513L205.729 18.0187H203.69V18.8628H205.729L204.145 20.2301L204.834 20.8294L207.112 18.8628H208.09V19.7068L205.812 21.6735L206.506 22.2685L208.09 20.9012V22.661H209.068V20.9012L210.652 22.2685L211.346 21.6735L209.068 19.7068V18.8628H210.046L212.324 20.8294L213.013 20.2301L211.429 18.8628H213.468V18.0187Z" fill="white"/>
<g filter="url(#filter2_d)">
<path d="M300.144 53.469H286.733C284.882 53.469 283.382 54.7551 283.382 56.3417V67.8388C283.382 69.4253 284.882 70.7114 286.733 70.7114H300.144C301.995 70.7114 303.495 69.4253 303.495 67.8388V56.3417C303.495 54.7551 301.995 53.469 300.144 53.469Z" fill="#F2C94C"/>
</g>
<path d="M298.05 60.6435C298.05 58.5333 296.094 56.8452 293.649 56.8452C291.205 56.8452 289.249 58.5333 289.249 60.6435C289.249 61.9518 290.032 63.1334 291.205 63.8087V64.8637C291.205 65.4124 291.596 65.8766 292.183 66.0454V66.1298C292.183 66.8473 292.818 67.3959 293.649 67.3959C294.481 67.3959 295.116 66.8473 295.116 66.1298V66.0454C295.703 65.8766 296.094 65.4124 296.094 64.8637V63.8087C297.267 63.1334 298.05 61.9518 298.05 60.6435ZM290.227 60.6435C290.227 58.9976 291.743 57.6893 293.649 57.6893C295.556 57.6893 297.072 58.9976 297.072 60.6435C297.072 62.1206 295.801 63.3444 294.138 63.5555V62.5004L294.969 61.7829C295.165 61.6141 295.165 61.3609 294.969 61.1921C294.774 61.0233 294.481 61.0233 294.285 61.1921L293.649 61.7407L293.014 61.1921C292.818 61.0233 292.525 61.0233 292.329 61.1921C292.134 61.3609 292.134 61.6141 292.329 61.7829L293.161 62.5004V63.5555C291.498 63.3444 290.227 62.1206 290.227 60.6435ZM293.649 66.5519C293.356 66.5519 293.161 66.383 293.161 66.1298H294.138C294.138 66.383 293.943 66.5519 293.649 66.5519ZM295.116 64.8637C295.116 65.117 294.921 65.2858 294.627 65.2858H292.672C292.378 65.2858 292.183 65.117 292.183 64.8637V64.2307C292.623 64.3573 293.112 64.4417 293.649 64.4417C294.187 64.4417 294.676 64.3573 295.116 64.2307V64.8637Z" fill="white"/>
<g filter="url(#filter3_d)">
<path d="M192.584 53.469H179.173C177.323 53.469 175.822 54.7551 175.822 56.3417V67.8388C175.822 69.4253 177.323 70.7114 179.173 70.7114H192.584C194.435 70.7114 195.935 69.4253 195.935 67.8388V56.3417C195.935 54.7551 194.435 53.469 192.584 53.469Z" fill="#F58A8A"/>
</g>
<g clip-path="url(#clip0)">
<path d="M189.023 60.2213H188.534V59.3772C188.534 58.2124 187.439 57.2671 186.089 57.2671C184.74 57.2671 183.645 58.2124 183.645 59.3772V60.2213H183.156C182.618 60.2213 182.178 60.6011 182.178 61.0653V65.2856C182.178 65.7499 182.618 66.1297 183.156 66.1297H189.023C189.56 66.1297 190 65.7499 190 65.2856V61.0653C190 60.6011 189.56 60.2213 189.023 60.2213ZM186.089 64.0195C185.551 64.0195 185.111 63.6397 185.111 63.1755C185.111 62.7113 185.551 62.3314 186.089 62.3314C186.627 62.3314 187.067 62.7113 187.067 63.1755C187.067 63.6397 186.627 64.0195 186.089 64.0195ZM187.605 60.2213H184.574V59.3772C184.574 58.6556 185.253 58.0689 186.089 58.0689C186.925 58.0689 187.605 58.6556 187.605 59.3772V60.2213Z" fill="white"/>
</g>
<g filter="url(#filter4_d)">
<path d="M277.654 10H264.243C262.393 10 260.893 11.2861 260.893 12.8727V24.3698C260.893 25.9563 262.393 27.2424 264.243 27.2424H277.654C279.505 27.2424 281.005 25.9563 281.005 24.3698V12.8727C281.005 11.2861 279.505 10 277.654 10Z" fill="#6FCF97"/>
</g>
<path d="M273.756 16.2869H265.771V20.5944H273.756V16.2869Z" fill="white"/>
<path d="M275.908 17.144L274.146 17.7834V19.116L275.908 19.7554H276.547V17.144H275.908Z" fill="white"/>
<path d="M244.46 103.476C243.915 105.61 244.654 106.84 245.236 107.143C246.391 107.745 247.681 108.497 247.681 108.497C247.681 108.497 255.713 122.257 258.041 123.242C260.757 124.391 266.966 124.988 266.966 124.988L269.682 119.556C269.682 119.556 263.473 118.198 260.757 117.616C258.927 117.224 250.863 108.497 250.863 108.497L252.415 105.781H249.505C247.371 104.229 246.214 101.032 246.214 101.032C246.214 101.032 244.833 102.019 244.46 103.476Z" fill="url(#paint1_linear)"/>
<path d="M276.282 128.166C275.304 127.188 269.682 125.64 266.993 124.988L269.682 119.61C270.741 119.61 273.838 119.366 277.749 118.388C282.638 117.166 284.349 112.766 289.972 117.41C294.469 121.126 302.276 137.374 305.617 145.033C300.363 150.041 296.873 151.667 289.972 153.1C289.564 152.286 288.358 149.531 286.794 145.033C284.838 139.411 278.727 139.411 277.749 137.455C276.771 135.5 277.504 129.388 276.282 128.166Z" fill="url(#paint2_linear)"/>
<path d="M293.883 183.657C292.123 179.746 292.09 161.167 291.438 152.612C297.4 151.44 300.548 149.93 305.616 144.789C305.616 144.789 313.928 148.7 313.439 157.745C312.95 166.79 316.627 171.357 318.817 174.368C320.773 177.057 325.417 182.761 327.862 186.591L325.417 191.235C322.728 188.383 314.857 182.582 310.75 179.257C306.643 175.933 305.291 167.605 304.639 163.123C304.231 167.849 302.194 176.519 303.172 179.257C304.15 181.995 314.661 190.258 318.817 194.413L317.35 198.569C310.261 195.228 295.643 187.569 293.883 183.657Z" fill="url(#paint3_linear)"/>
<path d="M273.349 111.543C273.544 110.761 273.267 108.447 273.593 107.632C275.94 108.023 277.26 109.669 277.749 110.321C278.238 110.24 278.939 110.012 279.216 110.566C279.46 111.054 279.216 112.032 278.482 112.766L280.194 117.41C279.383 117.937 278.889 118.114 277.993 118.388C278.482 117.166 278.238 116.188 277.993 115.699C276.233 117.068 275.549 117.003 274.816 116.921L274.082 113.743L272.86 113.988C273.104 113.58 273.153 112.326 273.349 111.543Z" fill="url(#paint4_linear)"/>
<path d="M277.749 110.321C276.771 108.952 274.408 107.958 273.348 107.632C271.393 106.165 272.371 102.987 277.015 101.521C281.66 100.054 283.616 103.965 284.593 104.943C285.571 105.921 286.06 109.099 290.46 111.054C294.86 113.01 294.616 110.565 297.305 110.565C299.994 110.565 301.216 112.277 300.727 113.743C300.238 115.21 299.994 116.921 302.927 118.877C305.861 120.833 303.172 123.522 302.927 126.455C302.683 129.388 298.772 127.922 294.616 127.922C290.46 127.922 291.194 127.922 290.46 125.233C289.727 122.544 288.505 121.566 287.038 120.833C285.571 120.099 282.149 120.588 281.415 119.855C280.829 119.268 279.215 114.884 278.482 112.766C278.808 112.277 279.411 111.152 279.215 110.565C279.02 109.979 278.156 110.158 277.749 110.321Z" fill="#F2994A"/>
<path d="M268.46 139.9L280.193 139.167C281.562 139.362 283.86 141.041 284.838 141.856C284.512 142.589 283.567 144.056 282.394 144.056C281.22 144.056 272.615 142.589 268.46 141.856H267.482V138.189L268.46 139.9Z" fill="url(#paint5_linear)"/>
<path d="M267.482 143.567V135.255H263.326V143.567H267.482Z" fill="#F2C94C"/>
<path d="M325.417 205.414C324.244 205.218 319.469 200.688 317.35 198.569L318.817 194.413C319.795 194.821 321.848 195.538 322.239 196.125C322.728 196.858 326.884 205.658 325.417 205.414Z" fill="#5A98D0"/>
<path d="M331.284 200.036C330.698 199.058 327.129 194.332 325.417 191.235L327.862 186.591C329.003 187.569 329.084 187.569 330.306 189.28C330.875 190.076 332.018 201.258 331.284 200.036Z" fill="#5A98D0"/>
<path opacity="0.2" d="M306.105 156.034L304.638 163.368C304.883 166.057 306.35 172.657 308.794 177.301C305.861 168.012 306.839 161.086 306.105 156.034Z" fill="black"/>
<path d="M95.6411 265.794L94.9077 263.349L98.819 262.616C100.693 263.594 104.295 265.745 103.708 266.527C103.513 266.918 98.2486 266.201 95.6411 265.794Z" fill="#D06262"/>
<path d="M75.8403 242.815L78.0404 246.482C77.8774 249.008 77.3559 253.962 76.5736 253.571C75.7914 253.18 73.3142 246.889 72.1735 243.793L75.8403 242.815Z" fill="#D06262"/>
<path d="M63.0448 220.811C60.4393 218.105 58.0717 213.004 57.2135 210.791C59.7205 209.579 65.2919 206.808 67.5213 205.425C69.7507 204.041 73.979 200.903 75.8145 199.507C76.8852 200.472 80.0009 202.853 83.8981 204.655C93.9067 209.38 99.6232 215.483 101.599 220.947C103.179 225.319 96.7043 231.79 93.0259 234.501C90.8946 230.879 89.6122 229.414 87.0855 225.964L87.9444 221.958L82.8968 220.458C83.6429 221.453 86.0883 224.731 89.9004 229.879C96.7793 238.476 99.1615 253.166 99.4927 259.437C98.2094 259.718 95.0495 260.238 92.6768 260.064C92.3966 257.018 88.5806 250.252 84.9371 244.262C84.1957 245.149 83.1684 246.209 82.57 246.264C79.5414 245.364 78.6032 241.392 78.5127 239.518L80.8016 237.601C80.488 237.1 80.1944 236.63 79.9256 236.197C76.179 230.159 66.3018 224.194 63.0448 220.811Z" fill="#1F3F68"/>
<path d="M76.7436 198.93C69.6377 204.412 54.9289 214.242 52.9411 209.711C50.4563 204.048 50.9432 204.004 49.5693 202.411C48.1955 200.819 47.8596 197.168 47.2384 195.752C46.9262 195.041 44.4091 191.928 42.3969 188.097C42.3969 188.097 42.3365 187.986 42.2342 187.783C40.8056 184.995 39.6774 181.858 39.863 179.001C40.005 174.815 43.1894 172.115 43.1894 172.115C45.0873 170.091 46.8673 169.752 47.4839 169.806L47.4953 169.814C48.979 170.823 51.1728 172.315 51.9497 172.243C52.7287 172.172 53.8397 170.701 54.573 169.968C58.2916 170.362 59.4272 169.41 62.3338 169.806C65.9182 170.295 75.5961 175.346 83.1743 161.901C83.927 162.077 85.6239 162.746 86.841 162.634C82.6853 174.857 79.0185 178.661 75.5961 179.859C72.9695 180.778 70.9002 181.035 69.2655 181.018C68.9656 182.612 68.5669 185.233 67.9024 187.906C69.2686 190.407 70.7127 192.705 71.8469 193.734C74.7933 196.409 78.1204 197.886 76.7436 198.93Z" fill="white"/>
<path d="M76.6042 213.427L83.1629 220.679L87.9447 221.958L87.6594 224.193C88.7571 222.783 90.164 219.397 87.0101 217.134C83.8561 214.871 78.7586 213.72 76.6042 213.427Z" fill="black" fill-opacity="0.2"/>
<path d="M80.7906 237.59L84.8479 244.336L84.1847 245.134C83.5859 243.961 82.0134 242.879 80.6844 241.773C79.6211 240.889 79.3981 239.355 79.4196 238.698L80.7906 237.59Z" fill="black" fill-opacity="0.2"/>
<path d="M61.9395 200.783C54.9981 200.047 46.5567 192.788 43.2037 189.25C50.9571 196.147 59.9668 198.019 62.8207 197.02C65.1039 196.22 66.8542 190.271 67.7738 187.813L69.631 190.993C69.9593 194.563 68.8808 201.519 61.9395 200.783Z" fill="black" fill-opacity="0.2"/>
<path d="M59.4461 187.02C57.9071 187.301 53.9246 183.927 52.1376 182.291C58.7158 187.087 58.7289 184.635 67.0404 178.768C66.6794 179.292 63.1291 186.346 59.4461 187.02Z" fill="black" fill-opacity="0.2"/>
<path d="M69.4849 179.99C68.6475 179.822 67.9185 179.539 67.0404 178.768L67.7738 177.057C67.6923 176.649 67.5782 175.737 67.7738 175.346C67.9693 174.954 68.7516 174.531 68.996 174.368L68.7516 175.59L69.9739 174.123L71.9295 175.834L71.685 177.546L70.2183 178.279L69.4849 179.99Z" fill="#F2994A"/>
<path d="M87.3299 160.189L86.8409 162.634C86.0587 162.829 83.989 162.226 83.1741 161.9C83.4186 161.167 84.2008 159.211 84.3964 158.234C84.592 157.256 86.4335 156.196 87.3299 155.789H88.3077L87.3299 157.5V160.189Z" fill="#F2994A"/>
<path d="M46.2614 164.834C46.6526 165.617 47.7282 167.279 48.2171 168.012C48.543 167.36 48.9993 165.91 48.2171 165.323C47.4348 164.737 46.7503 163.775 46.5059 163.368C46.7504 163.205 47.3859 162.879 47.9726 162.879C47.5815 159.945 49.6023 158.886 50.6616 158.723L54.8173 158.479L55.0618 159.701C56.61 158.234 59.4131 155.056 58.2397 154.078C56.773 152.856 52.3728 156.034 49.4393 156.034C46.5059 156.034 45.2836 157.501 44.5503 158.967C43.8169 160.434 45.7725 163.857 46.2614 164.834Z" fill="#316099"/>
<path d="M51.884 172.412C51.1017 172.412 48.869 170.864 47.4838 169.968C48.1357 169.642 48.4616 168.403 48.4616 168.012C48.4616 167.523 48.9505 165.568 48.4616 165.323C47.9727 165.079 46.506 164.101 46.506 163.612C46.506 163.221 47.4838 163.123 47.9727 163.123C47.8097 162.308 47.7771 160.434 48.9505 159.456C50.1239 158.478 53.3507 158.397 54.8174 158.478C54.8989 158.804 55.2086 160.19 55.7952 163.123C56.3819 166.057 55.0619 167.442 54.3285 167.768L54.573 169.968C54.0026 170.701 52.6662 172.412 51.884 172.412Z" fill="#F2994A"/>
<path d="M98.819 262.616L98.5746 259.682C96.8482 260.145 95.8227 260.227 93.93 260.171L94.9078 263.349L98.819 262.616Z" fill="#98C3E8"/>
<path d="M78.0404 246.482L80.9739 245.504C79.6645 244 79.2239 243.141 78.7738 241.593L75.8403 242.815L78.0404 246.482Z" fill="#98C3E8"/>
<rect opacity="0.8" x="91.241" y="125.477" width="130.188" height="92.551" rx="5" fill="url(#paint6_linear)"/>
<path d="M91.241 130.477C91.241 127.716 93.4796 125.477 96.241 125.477H128.878V218.028H96.241C93.4796 218.028 91.241 215.79 91.241 213.028V130.477Z" fill="white"/>
<circle cx="97.108" cy="131.344" r="1.95563" fill="#FA9595"/>
<circle cx="103.464" cy="131.344" r="1.95563" fill="#FDF397"/>
<circle cx="109.331" cy="131.344" r="1.95563" fill="#C1FEBB"/>
<path opacity="0.4" fill-rule="evenodd" clip-rule="evenodd" d="M95.6417 177.301H123.998V180.723H95.6417V177.301ZM95.6412 184.146H123.998V187.569H95.6412V184.146ZM114.709 191.969H95.6412V195.391H114.709V191.969Z" fill="#5A98D0"/>
<path opacity="0.1" fill-rule="evenodd" clip-rule="evenodd" d="M182.178 137.7H210.535V141.122H182.178V137.7ZM182.178 144.545H210.535V147.967H182.178V144.545ZM201.245 152.367H182.178V155.789H201.245V152.367Z" fill="black"/>
<g filter="url(#filter5_d)">
<rect x="87.3298" y="138.188" width="39.6016" height="24.4454" rx="5" fill="#56CCF2"/>
</g>
<path d="M101.664 167.167C101.581 167.005 101.508 166.742 101.446 166.377C100.842 167.008 100.102 167.323 99.2269 167.323C98.378 167.323 97.6853 167.081 97.1488 166.596C96.6123 166.112 96.3441 165.513 96.3441 164.799C96.3441 163.898 96.6774 163.208 97.3441 162.729C98.016 162.245 98.9743 162.002 100.219 162.002H101.383V161.448C101.383 161.01 101.261 160.661 101.016 160.401C100.771 160.135 100.399 160.002 99.8988 160.002C99.4665 160.002 99.1123 160.112 98.8363 160.331C98.5603 160.544 98.4222 160.818 98.4222 161.151H96.5238C96.5238 160.687 96.6774 160.255 96.9847 159.854C97.292 159.448 97.7087 159.13 98.2347 158.901C98.766 158.672 99.3571 158.557 100.008 158.557C100.998 158.557 101.787 158.807 102.375 159.307C102.964 159.802 103.266 160.5 103.282 161.401V165.213C103.282 165.974 103.388 166.581 103.602 167.034V167.167H101.664ZM99.5785 165.799C99.9535 165.799 100.305 165.708 100.633 165.526C100.967 165.344 101.217 165.099 101.383 164.792V163.198H100.36C99.6566 163.198 99.128 163.32 98.7738 163.565C98.4196 163.81 98.2426 164.156 98.2426 164.604C98.2426 164.969 98.3623 165.26 98.6019 165.479C98.8467 165.693 99.1722 165.799 99.5785 165.799ZM106.738 167.167V160.12H105.449V158.713H106.738V157.94C106.738 157.002 106.998 156.278 107.519 155.768C108.04 155.258 108.769 155.002 109.707 155.002C110.04 155.002 110.394 155.049 110.769 155.143L110.722 156.627C110.514 156.586 110.272 156.565 109.996 156.565C109.089 156.565 108.636 157.031 108.636 157.963V158.713H110.355V160.12H108.636V167.167H106.738ZM116.968 160.448C116.718 160.406 116.46 160.385 116.194 160.385C115.324 160.385 114.738 160.719 114.436 161.385V167.167H112.538V158.713H114.35L114.397 159.659C114.856 158.924 115.491 158.557 116.303 158.557C116.574 158.557 116.798 158.594 116.975 158.667L116.968 160.448ZM98.6332 213.167H96.7347V204.713H98.6332V213.167ZM96.6176 202.518C96.6176 202.226 96.7087 201.984 96.891 201.792C97.0785 201.599 97.3441 201.502 97.6879 201.502C98.0316 201.502 98.2972 201.599 98.4847 201.792C98.6722 201.984 98.766 202.226 98.766 202.518C98.766 202.805 98.6722 203.044 98.4847 203.237C98.2972 203.424 98.0316 203.518 97.6879 203.518C97.3441 203.518 97.0785 203.424 96.891 203.237C96.7087 203.044 96.6176 202.805 96.6176 202.518ZM106.558 213.167C106.475 213.005 106.402 212.742 106.339 212.377C105.735 213.008 104.996 213.323 104.121 213.323C103.272 213.323 102.579 213.081 102.043 212.596C101.506 212.112 101.238 211.513 101.238 210.799C101.238 209.898 101.571 209.208 102.238 208.729C102.91 208.245 103.868 208.002 105.113 208.002H106.277V207.448C106.277 207.01 106.155 206.661 105.91 206.401C105.665 206.135 105.293 206.002 104.793 206.002C104.36 206.002 104.006 206.112 103.73 206.331C103.454 206.544 103.316 206.818 103.316 207.151H101.418C101.418 206.687 101.571 206.255 101.878 205.854C102.186 205.448 102.602 205.13 103.128 204.901C103.66 204.672 104.251 204.557 104.902 204.557C105.892 204.557 106.681 204.807 107.269 205.307C107.858 205.802 108.16 206.5 108.175 207.401V211.213C108.175 211.974 108.282 212.581 108.496 213.034V213.167H106.558ZM104.472 211.799C104.847 211.799 105.199 211.708 105.527 211.526C105.86 211.344 106.11 211.099 106.277 210.792V209.198H105.253C104.55 209.198 104.022 209.32 103.668 209.565C103.313 209.81 103.136 210.156 103.136 210.604C103.136 210.969 103.256 211.26 103.496 211.479C103.74 211.693 104.066 211.799 104.472 211.799ZM112.725 204.713L112.78 205.69C113.405 204.935 114.225 204.557 115.241 204.557C117.001 204.557 117.897 205.565 117.928 207.581V213.167H116.03V207.69C116.03 207.153 115.913 206.758 115.678 206.502C115.449 206.242 115.072 206.112 114.546 206.112C113.78 206.112 113.21 206.458 112.835 207.151V213.167H110.936V204.713H112.725Z" fill="white"/>
<rect x="137.198" y="134.277" width="38.6238" height="37.646" rx="5" fill="#EB5757"/>
<g clip-path="url(#clip1)">
<path d="M152.354 146.5V160.189L163.11 153.345L152.354 146.5Z" fill="white"/>
</g>
<g filter="url(#filter6_d)">
<rect x="137.198" y="178.279" width="75.2919" height="30.8012" rx="5" fill="#6FCF97"/>
</g>
<path d="M143.799 200.28C148.443 197.102 150.399 192.946 159.199 192.946C168 192.946 168.772 197.835 174.111 197.835C180.467 197.835 186.578 188.302 193.423 188.302C200.268 188.302 201.979 193.191 205.646 193.435" stroke="black" stroke-opacity="0.1" stroke-width="2" stroke-linecap="round" stroke-linejoin="round"/>
<path d="M143.554 200.524C148.199 197.346 149.421 188.057 158.222 188.057C167.022 188.057 169.017 196.124 174.356 196.124C180.711 196.124 186.334 182.924 193.179 182.924C200.023 182.924 202.223 193.191 205.89 193.435" stroke="white" stroke-width="2" stroke-linecap="round" stroke-linejoin="round"/>
<defs>
<filter id="filter0_d" x="171.291" y="12.897" width="143.024" height="143.024" filterUnits="userSpaceOnUse" color-interpolation-filters="sRGB">
<feFlood flood-opacity="0" result="BackgroundImageFix"/>
<feColorMatrix in="SourceAlpha" type="matrix" values="0 0 0 0 0 0 0 0 0 0 0 0 0 0 0 0 0 0 127 0"/>
<feOffset/>
<feGaussianBlur stdDeviation="25"/>
<feColorMatrix type="matrix" values="0 0 0 0 0.0627451 0 0 0 0 0.439216 0 0 0 0 0.694118 0 0 0 0.25 0"/>
<feBlend mode="normal" in2="BackgroundImageFix" result="effect1_dropShadow"/>
<feBlend mode="normal" in="SourceGraphic" in2="effect1_dropShadow" result="shape"/>
</filter>
<filter id="filter1_d" x="188.38" y="0" width="50.1128" height="47.2424" filterUnits="userSpaceOnUse" color-interpolation-filters="sRGB">
<feFlood flood-opacity="0" result="BackgroundImageFix"/>
<feColorMatrix in="SourceAlpha" type="matrix" values="0 0 0 0 0 0 0 0 0 0 0 0 0 0 0 0 0 0 127 0"/>
<feOffset dx="5" dy="5"/>
<feGaussianBlur stdDeviation="7.5"/>
<feColorMatrix type="matrix" values="0 0 0 0 0 0 0 0 0 0 0 0 0 0 0 0 0 0 0.15 0"/>
<feBlend mode="normal" in2="BackgroundImageFix" result="effect1_dropShadow"/>
<feBlend mode="normal" in="SourceGraphic" in2="effect1_dropShadow" result="shape"/>
</filter>
<filter id="filter2_d" x="273.382" y="43.469" width="50.1128" height="47.2424" filterUnits="userSpaceOnUse" color-interpolation-filters="sRGB">
<feFlood flood-opacity="0" result="BackgroundImageFix"/>
<feColorMatrix in="SourceAlpha" type="matrix" values="0 0 0 0 0 0 0 0 0 0 0 0 0 0 0 0 0 0 127 0"/>
<feOffset dx="5" dy="5"/>
<feGaussianBlur stdDeviation="7.5"/>
<feColorMatrix type="matrix" values="0 0 0 0 0 0 0 0 0 0 0 0 0 0 0 0 0 0 0.15 0"/>
<feBlend mode="normal" in2="BackgroundImageFix" result="effect1_dropShadow"/>
<feBlend mode="normal" in="SourceGraphic" in2="effect1_dropShadow" result="shape"/>
</filter>
<filter id="filter3_d" x="165.822" y="43.469" width="50.1128" height="47.2424" filterUnits="userSpaceOnUse" color-interpolation-filters="sRGB">
<feFlood flood-opacity="0" result="BackgroundImageFix"/>
<feColorMatrix in="SourceAlpha" type="matrix" values="0 0 0 0 0 0 0 0 0 0 0 0 0 0 0 0 0 0 127 0"/>
<feOffset dx="5" dy="5"/>
<feGaussianBlur stdDeviation="7.5"/>
<feColorMatrix type="matrix" values="0 0 0 0 0 0 0 0 0 0 0 0 0 0 0 0 0 0 0.15 0"/>
<feBlend mode="normal" in2="BackgroundImageFix" result="effect1_dropShadow"/>
<feBlend mode="normal" in="SourceGraphic" in2="effect1_dropShadow" result="shape"/>
</filter>
<filter id="filter4_d" x="250.893" y="0" width="50.1128" height="47.2424" filterUnits="userSpaceOnUse" color-interpolation-filters="sRGB">
<feFlood flood-opacity="0" result="BackgroundImageFix"/>
<feColorMatrix in="SourceAlpha" type="matrix" values="0 0 0 0 0 0 0 0 0 0 0 0 0 0 0 0 0 0 127 0"/>
<feOffset dx="5" dy="5"/>
<feGaussianBlur stdDeviation="7.5"/>
<feColorMatrix type="matrix" values="0 0 0 0 0 0 0 0 0 0 0 0 0 0 0 0 0 0 0.15 0"/>
<feBlend mode="normal" in2="BackgroundImageFix" result="effect1_dropShadow"/>
<feBlend mode="normal" in="SourceGraphic" in2="effect1_dropShadow" result="shape"/>
</filter>
<filter id="filter5_d" x="82.3298" y="133.188" width="59.6016" height="44.4454" filterUnits="userSpaceOnUse" color-interpolation-filters="sRGB">
<feFlood flood-opacity="0" result="BackgroundImageFix"/>
<feColorMatrix in="SourceAlpha" type="matrix" values="0 0 0 0 0 0 0 0 0 0 0 0 0 0 0 0 0 0 127 0"/>
<feOffset dx="5" dy="5"/>
<feGaussianBlur stdDeviation="5"/>
<feColorMatrix type="matrix" values="0 0 0 0 0.0627451 0 0 0 0 0.439216 0 0 0 0 0.694118 0 0 0 0.2 0"/>
<feBlend mode="normal" in2="BackgroundImageFix" result="effect1_dropShadow"/>
<feBlend mode="normal" in="SourceGraphic" in2="effect1_dropShadow" result="shape"/>
</filter>
<filter id="filter6_d" x="127.198" y="172.279" width="95.2919" height="50.8012" filterUnits="userSpaceOnUse" color-interpolation-filters="sRGB">
<feFlood flood-opacity="0" result="BackgroundImageFix"/>
<feColorMatrix in="SourceAlpha" type="matrix" values="0 0 0 0 0 0 0 0 0 0 0 0 0 0 0 0 0 0 127 0"/>
<feOffset dy="4"/>
<feGaussianBlur stdDeviation="5"/>
<feColorMatrix type="matrix" values="0 0 0 0 0.435294 0 0 0 0 0.811765 0 0 0 0 0.592157 0 0 0 0.2 0"/>
<feBlend mode="normal" in2="BackgroundImageFix" result="effect1_dropShadow"/>
<feBlend mode="normal" in="SourceGraphic" in2="effect1_dropShadow" result="shape"/>
</filter>
<linearGradient id="paint0_linear" x1="183.457" y1="-33.0851" x2="164.965" y2="294.887" gradientUnits="userSpaceOnUse">
<stop stop-color="#D1ECFF"/>
<stop offset="1" stop-color="#1070B1"/>
</linearGradient>
<linearGradient id="paint1_linear" x1="273.475" y1="107.18" x2="248.163" y2="123.715" gradientUnits="userSpaceOnUse">
<stop stop-color="#FFF8E1"/>
<stop offset="1" stop-color="#FFCC80"/>
</linearGradient>
<linearGradient id="paint2_linear" x1="286.305" y1="115.328" x2="286.305" y2="153.1" gradientUnits="userSpaceOnUse">
<stop stop-color="#AF6CED"/>
<stop offset="1" stop-color="#5E199D"/>
</linearGradient>
<linearGradient id="paint3_linear" x1="309.65" y1="144.789" x2="309.65" y2="198.569" gradientUnits="userSpaceOnUse">
<stop stop-color="#EB5757"/>
<stop offset="1" stop-color="#872727"/>
</linearGradient>
<linearGradient id="paint4_linear" x1="281.288" y1="110.393" x2="272.429" y2="114.112" gradientUnits="userSpaceOnUse">
<stop stop-color="#FFF8E1"/>
<stop offset="1" stop-color="#FFCC80"/>
</linearGradient>
<linearGradient id="paint5_linear" x1="287.429" y1="139.694" x2="281.718" y2="150.098" gradientUnits="userSpaceOnUse">
<stop stop-color="#FFF8E1"/>
<stop offset="1" stop-color="#FFCC80"/>
</linearGradient>
<linearGradient id="paint6_linear" x1="94.3667" y1="159.288" x2="243.728" y2="175.666" gradientUnits="userSpaceOnUse">
<stop offset="0.127122" stop-color="white"/>
<stop offset="0.972261" stop-color="white" stop-opacity="0.8"/>
</linearGradient>
<clipPath id="clip0">
<rect x="180.222" y="56.8452" width="11.7338" height="10.1287" fill="white"/>
</clipPath>
<clipPath id="clip1">
<rect x="144.532" y="141.611" width="23.4676" height="23.4676" fill="white"/>
</clipPath>
</defs>
</svg>
