<svg width="768" height="258" viewBox="0 0 768 258" fill="none" xmlns="http://www.w3.org/2000/svg">
<mask id="mask0" mask-type="alpha" maskUnits="userSpaceOnUse" x="-349" y="0" width="1366" height="250">
<rect x="-349" width="1366" height="250" fill="#C4C4C4"/>
</mask>
<g mask="url(#mask0)">
<rect x="-349" y="-111" width="1366" height="471" fill="url(#paint0_linear)"/>
<path d="M-421 97C-352 77.5 -200.3 46.3 -145.5 77.5C-90.7 108.7 -28.6667 231.167 -4.5 288.5L478 275C402.833 232.667 251.1 133.9 245.5 77.5C239.9 21.1 335.5 -60 384 -93.5L618 -69.5C621.167 -45.1667 637.1 10.9 675.5 40.5C713.9 70.1 957.5 -9.16667 1074.5 -52.5L1089 344C1044.5 279.333 941.1 148.6 883.5 143C825.9 137.4 653.833 215.667 575 255.5" stroke="white" stroke-opacity="0.15" stroke-width="15"/>
<circle cx="131" cy="115" r="9" fill="white" fill-opacity="0.2"/>
<circle cx="253" cy="250" r="9" fill="white" fill-opacity="0.2"/>
<circle cx="496" cy="35" r="9" fill="white" fill-opacity="0.2"/>
<circle cx="33" r="17" stroke="white" stroke-opacity="0.6" stroke-width="8"/>
<circle cx="528" cy="221" r="17" stroke="white" stroke-opacity="0.6" stroke-width="8"/>
</g>
<defs>
<linearGradient id="paint0_linear" x1="1017" y1="-59.9999" x2="88.5478" y2="732.556" gradientUnits="userSpaceOnUse">
<stop stop-color="#98D0FC"/>
<stop offset="1" stop-color="#3481D7"/>
</linearGradient>
</defs>
</svg>
